<svg width="36" height="37" viewBox="0 0 36 37" fill="none" xmlns="http://www.w3.org/2000/svg">
<g clip-path="url(#clip0_34701_1406)">
<path d="M35.5001 0.712158V35.7073H0.5177V0.712158H35.5001Z" fill="#231F20" stroke="black"/>
<path d="M19.7625 15.0181V14.4035C19.7631 14.3099 19.8219 14.2474 19.893 14.2474H22.1906C22.2646 14.2474 22.3233 14.3117 22.3233 14.4029V14.931C22.3224 15.0182 22.2603 15.1341 22.1503 15.3177L20.9591 17.3561C21.4011 17.3437 21.8688 17.4229 22.2705 17.6939C22.361 17.7552 22.3856 17.8446 22.3924 17.9335V18.5908C22.3924 18.6816 22.3097 18.7866 22.2237 18.7319C21.5157 18.2864 20.5771 18.238 19.7952 18.7372C19.7151 18.7886 19.6317 18.6858 19.6317 18.5949V17.9696C19.6317 17.87 19.6331 17.6991 19.7171 17.547L21.0958 15.1736H19.8955C19.8222 15.1735 19.7634 15.1108 19.7625 15.0181ZM11.3809 18.8613H10.6817C10.6152 18.8565 10.5616 18.7964 10.5567 18.7198L10.5573 14.414C10.5573 14.3281 10.6172 14.2589 10.692 14.2589L11.343 14.2586C11.4113 14.2631 11.4658 14.3249 11.4703 14.4035V14.9658H11.4831C11.6523 14.4221 11.9726 14.168 12.4028 14.168C12.8404 14.168 13.1137 14.4221 13.31 14.9658C13.4798 14.4221 13.8645 14.168 14.276 14.168C14.5698 14.168 14.8893 14.3132 15.0853 14.6394C15.3075 15.0009 15.2616 15.5273 15.2616 15.9883L15.2613 18.7061C15.2613 18.7925 15.2003 18.8613 15.1261 18.8613H14.4281C14.3576 18.8564 14.3026 18.7895 14.3026 18.707L14.3023 16.4237C14.3023 16.2427 14.3151 15.7902 14.2824 15.6173C14.2298 15.3275 14.0733 15.246 13.871 15.246C13.7021 15.246 13.5255 15.3819 13.4535 15.5994C13.3821 15.8171 13.3883 16.1787 13.3883 16.4237V18.706C13.3883 18.7924 13.3279 18.8612 13.2534 18.8612H12.5552C12.4849 18.8563 12.4295 18.7894 12.4295 18.7069L12.4286 16.4236C12.4286 15.9431 12.4942 15.2369 11.9985 15.2369C11.4956 15.2369 11.5153 15.9261 11.5153 16.4236L11.515 18.7059C11.5149 18.7925 11.4557 18.8613 11.3809 18.8613ZM24.302 14.168C25.3387 14.168 25.901 15.2371 25.901 16.596C25.901 17.909 25.2799 18.9522 24.302 18.9522C23.2836 18.9522 22.7285 17.8812 22.7285 16.5502C22.7285 15.2101 23.2899 14.168 24.302 14.168ZM24.3087 15.0464C23.7924 15.0464 23.7597 15.89 23.7597 16.4138C23.7597 16.9396 23.7531 18.0625 24.302 18.0625C24.8425 18.0625 24.8682 17.1569 24.8682 16.6057C24.8682 16.2428 24.8555 15.8081 24.7638 15.4636C24.6858 15.1641 24.5291 15.0464 24.3087 15.0464ZM27.246 18.8613H26.549C26.4785 18.8565 26.4235 18.7895 26.4235 18.707L26.422 14.3997C26.4282 14.3207 26.4861 14.2589 26.5566 14.2589L27.2058 14.2586C27.2672 14.2625 27.3174 14.3126 27.3301 14.3795V15.0376H27.3433C27.5389 14.4493 27.8119 14.1679 28.2949 14.1679C28.6086 14.1679 28.9159 14.3041 29.1117 14.676C29.2933 15.0191 29.2933 15.5995 29.2933 16.016V18.7253C29.2852 18.8024 29.2279 18.8613 29.1607 18.8613H28.4587C28.395 18.8568 28.342 18.7988 28.334 18.7253V16.3876C28.334 15.9173 28.3804 15.2278 27.8966 15.2278C27.7266 15.2278 27.5716 15.3641 27.4929 15.5726C27.3952 15.8355 27.3824 16.0974 27.3824 16.3877V18.7061C27.3806 18.7925 27.3205 18.8613 27.246 18.8613ZM10.0108 18.0713C9.8836 17.8588 9.74756 17.6873 9.74756 17.2942V15.9873C9.74756 15.4343 9.78056 14.9261 9.43998 14.5448C9.17154 14.2356 8.72701 14.1267 8.38657 14.1267C7.7212 14.1267 6.97922 14.4246 6.82335 15.4108C6.80676 15.5163 6.87042 15.5711 6.9278 15.5866L7.60542 15.6747C7.66841 15.6708 7.71468 15.5955 7.72681 15.5201C7.78511 15.1799 8.02236 15.0161 8.289 15.0161C8.43234 15.0161 8.59587 15.0801 8.68131 15.2344C8.77938 15.4064 8.76621 15.6431 8.76621 15.8428V15.9508C8.36046 16.0056 7.8306 16.0417 7.45184 16.2417C7.01359 16.4692 6.70654 16.9314 6.70654 17.6131C6.70654 18.4853 7.16403 18.9211 7.75215 18.9211C8.25025 18.9211 8.52117 18.7801 8.90532 18.311C9.03236 18.5315 9.07383 18.6379 9.30588 18.8704C9.35808 18.9036 9.4247 18.9009 9.47118 18.8507L9.47273 18.8527C9.61244 18.7033 9.86655 18.4387 10.0086 18.2953C10.0653 18.2389 10.0553 18.1473 10.0108 18.0713ZM8.63522 17.6945C8.52385 17.9294 8.34769 18.0749 8.15159 18.0749C7.88325 18.0749 7.72636 17.8296 7.72636 17.4673C7.72636 16.7533 8.26077 16.6238 8.76632 16.6238V16.805C8.76632 17.1309 8.77271 17.4037 8.63522 17.6945ZM19.1757 18.0713C19.0476 17.8588 18.9118 17.6873 18.9118 17.2942V15.9873C18.9118 15.4343 18.9445 14.9261 18.6039 14.5448C18.3367 14.2356 17.8915 14.1267 17.5517 14.1267C16.8865 14.1267 16.1441 14.4246 15.9884 15.4108C15.9718 15.5163 16.0354 15.5711 16.0927 15.5866L16.7699 15.6747C16.8339 15.6708 16.8798 15.5955 16.8917 15.5201C16.9504 15.1799 17.1866 15.0161 17.4536 15.0161C17.5973 15.0161 17.7612 15.0801 17.8458 15.2344C17.9436 15.4064 17.9306 15.6431 17.9306 15.8428V15.9508C17.5253 16.0056 16.9958 16.0417 16.6167 16.2417C16.1785 16.4692 15.871 16.9314 15.871 17.6131C15.871 18.4853 16.3282 18.9211 16.9172 18.9211C17.414 18.9211 17.6863 18.7801 18.07 18.311C18.1968 18.5315 18.2386 18.6379 18.4706 18.8704C18.5232 18.9036 18.5891 18.9009 18.6354 18.8507L18.6369 18.8527C18.7769 18.7033 19.031 18.4387 19.1737 18.2953C19.2306 18.2389 19.2209 18.1473 19.1757 18.0713ZM17.7997 17.6945C17.6892 17.9294 17.5123 18.0749 17.316 18.0749C17.0477 18.0749 16.8915 17.8296 16.8915 17.4673C16.8915 16.7533 17.4252 16.6238 17.9306 16.6238V16.805C17.9306 17.1309 17.9374 17.4037 17.7997 17.6945Z" fill="white"/>
<path d="M20.6961 20.5343C19.3625 21.6763 17.5048 22.293 15.8658 22.293C13.57 22.293 11.5237 21.2961 9.94713 19.5882C9.80131 19.4303 9.89546 19.245 10.0768 19.37C11.7919 20.5598 13.8474 21.256 16.0041 21.256C17.4585 21.256 19.0033 20.9085 20.4714 20.1593C20.7924 19.9952 20.9254 20.3378 20.6961 20.5343Z" fill="#F9A51B"/>
<path d="M21.2661 19.7636C21.0974 19.5052 20.1555 19.6414 19.7324 19.7014C19.605 19.7201 19.5843 19.5857 19.7004 19.4886C20.4516 18.8586 21.6831 19.042 21.8255 19.2499C21.9695 19.4638 21.7874 20.946 21.0836 21.6536C20.9751 21.7631 20.8732 21.7037 20.921 21.5603C21.079 21.085 21.4339 20.0212 21.2661 19.7636Z" fill="#F9A51B"/>
<path d="M30.0886 18.1582C30.1673 18.1582 30.2343 18.1914 30.2895 18.2579C30.3447 18.3238 30.3725 18.4039 30.3725 18.4976C30.3725 18.592 30.3448 18.6722 30.2895 18.7385C30.2345 18.805 30.1676 18.8383 30.0886 18.8383C30.0098 18.8383 29.9429 18.805 29.8878 18.7385C29.833 18.6722 29.8054 18.5919 29.8054 18.4976C29.8054 18.4039 29.833 18.3238 29.8884 18.2579C29.9437 18.1914 30.0106 18.1582 30.0886 18.1582ZM30.417 18.4968C30.417 18.3883 30.3848 18.2958 30.3208 18.2194C30.2568 18.143 30.179 18.1047 30.0883 18.1047C29.998 18.1047 29.9211 18.143 29.857 18.2194C29.793 18.2962 29.7609 18.3885 29.7609 18.4968C29.7609 18.606 29.7926 18.6991 29.8561 18.7758C29.9198 18.8531 29.9974 18.8918 30.0882 18.8918C30.1789 18.8918 30.2567 18.8531 30.3208 18.7758C30.3848 18.699 30.417 18.6059 30.417 18.4968ZM30.1755 18.4119C30.1755 18.4443 30.163 18.4663 30.138 18.4782C30.1241 18.4847 30.1037 18.4876 30.0766 18.4876H30.0185V18.3336H30.0732C30.1092 18.3336 30.1349 18.3385 30.1514 18.3492C30.1674 18.36 30.1755 18.3805 30.1755 18.4119ZM29.9565 18.2801V18.7107H30.0184V18.541H30.0692C30.1035 18.541 30.1274 18.5458 30.1409 18.5547C30.1641 18.5712 30.1754 18.6037 30.1754 18.6536V18.6877L30.1768 18.7015L30.1776 18.7064C30.1782 18.7076 30.1784 18.7093 30.1786 18.7107H30.2376L30.2353 18.7052C30.2335 18.7015 30.2325 18.6943 30.232 18.683C30.2312 18.6715 30.2312 18.6609 30.2312 18.6508V18.6195C30.2312 18.5978 30.2244 18.5754 30.2116 18.5525C30.1985 18.5298 30.1781 18.5157 30.1499 18.5105C30.1721 18.5063 30.1894 18.4994 30.202 18.4897C30.2257 18.4712 30.2376 18.4429 30.2376 18.4046C30.2376 18.3506 30.2187 18.3143 30.1814 18.2956C30.1605 18.2854 30.1276 18.2802 30.0828 18.2802L29.9565 18.2801Z" fill="white"/>
</g>
<defs>
<clipPath id="clip0_34701_1406">
<rect y="0.209961" width="36" height="36" rx="8" fill="white"/>
</clipPath>
</defs>
</svg>
