<svg xmlns="http://www.w3.org/2000/svg" xmlns:xlink="http://www.w3.org/1999/xlink" version="1.1" width="256" height="256" viewBox="0 0 256 256" xml:space="preserve">

<defs>
</defs>
<g style="stroke: none; stroke-width: 0; stroke-dasharray: none; stroke-linecap: butt; stroke-linejoin: miter; stroke-miterlimit: 10; fill: none; fill-rule: nonzero; opacity: 1;" transform="translate(1.4065934065934016 1.4065934065934016) scale(2.81 2.81)" >
	<path d="M 0 45 c 0 24.853 20.147 45 45 45 V 0 C 20.147 0 0 20.147 0 45 z" style="stroke: none; stroke-width: 1; stroke-dasharray: none; stroke-linecap: butt; stroke-linejoin: miter; stroke-miterlimit: 10; fill: rgb(0,98,51); fill-rule: nonzero; opacity: 1;" transform=" matrix(1 0 0 1 0 0) " stroke-linecap="round" />
	<path d="M 90 45 c 0 24.853 -20.147 45 -45 45 V 0 C 69.853 0 90 20.147 90 45 z" style="stroke: none; stroke-width: 1; stroke-dasharray: none; stroke-linecap: butt; stroke-linejoin: miter; stroke-miterlimit: 10; fill: rgb(243,244,245); fill-rule: nonzero; opacity: 1;" transform=" matrix(1 0 0 1 0 0) " stroke-linecap="round" />
	<path d="M 58.758 66.647 c 3.8 -2.194 6.955 -5.349 9.149 -9.149 c -6.902 8.621 -19.487 10.014 -28.108 3.112 c -8.621 -6.902 -10.014 -19.487 -3.112 -28.108 s 19.487 -10.014 28.108 -3.112 c 1.149 0.92 2.192 1.963 3.112 3.112 c -6.902 -11.955 -22.19 -16.052 -34.145 -9.149 s -16.052 22.19 -9.149 34.145 S 46.802 73.549 58.758 66.647 z" style="stroke: none; stroke-width: 1; stroke-dasharray: none; stroke-linecap: butt; stroke-linejoin: miter; stroke-miterlimit: 10; fill: rgb(210,16,52); fill-rule: nonzero; opacity: 1;" transform=" matrix(1 0 0 1 0 0) " stroke-linecap="round" />
	<polygon points="60.24,33.17 54.9,40.49 46.24,37.67 51.6,45 46.24,52.33 54.9,49.51 60.24,56.83 60.24,47.77 68.74,45 60.24,42.23 " style="stroke: none; stroke-width: 1; stroke-dasharray: none; stroke-linecap: butt; stroke-linejoin: miter; stroke-miterlimit: 10; fill: rgb(210,16,52); fill-rule: nonzero; opacity: 1;" transform="  matrix(1 0 0 1 0 0) "/>
</g>
</svg>